<svg width="20" height="20" viewBox="0 0 20 20" fill="none" xmlns="http://www.w3.org/2000/svg">
  <path d="M16.9308 4.65003C15.6561 4.06453 14.2892 3.63684 12.8599 3.39453C12.8339 3.38969 12.8079 3.40177 12.7945 3.42594C12.6187 3.73619 12.4239 4.14219 12.2876 4.46211C10.7503 4.2371 9.22152 4.2371 7.71527 4.46211C7.57902 4.13494 7.37777 3.73619 7.20115 3.42594C7.18777 3.40261 7.16177 3.39053 7.13577 3.39453C5.70727 3.63603 4.34027 4.06369 3.06477 4.65003C3.05302 4.65486 3.04302 4.66369 3.03627 4.67503C0.444023 8.63453 -0.265727 12.4963 0.0822728 16.3088C0.0839728 16.3271 0.0947728 16.3446 0.109523 16.3555C1.81702 17.6071 3.47027 18.3796 5.09452 18.9038C5.12052 18.9121 5.14827 18.9021 5.16502 18.8813C5.55202 18.3396 5.89777 17.7688 6.19452 17.1688C6.21202 17.1346 6.19527 17.0938 6.15952 17.0796C5.60452 16.8671 5.07452 16.6063 4.56452 16.3113C4.52452 16.288 4.52202 16.2296 4.55952 16.203C4.66702 16.1221 4.77452 16.0379 4.87702 15.9529C4.89552 15.9371 4.92152 15.9338 4.94327 15.9438C8.22027 17.4746 11.8027 17.4746 15.0427 15.9438C15.0645 15.933 15.0905 15.9363 15.1098 15.9521C15.2123 16.0371 15.3198 16.1221 15.428 16.203C15.4655 16.2296 15.4638 16.288 15.4238 16.3113C14.9138 16.6121 14.3838 16.8671 13.828 17.0788C13.7923 17.093 13.7763 17.1346 13.7938 17.1688C14.0972 17.768 14.443 18.3388 14.823 18.8805C14.839 18.9021 14.8675 18.9121 14.8935 18.9038C16.5253 18.3796 18.1786 17.6071 19.8861 16.3555C19.9016 16.3446 19.9116 16.3279 19.9133 16.3096C20.3303 11.8763 19.2128 8.04628 16.9568 4.67586C16.9508 4.66369 16.9408 4.65486 16.9308 4.65003ZM6.68377 13.9521C5.69702 13.9521 4.88452 13.0496 4.88452 11.9363C4.88452 10.823 5.68027 9.92045 6.68377 9.92045C7.69552 9.92045 8.49977 10.8313 8.48302 11.9363C8.48302 13.0496 7.68727 13.9521 6.68377 13.9521ZM13.3298 13.9521C12.343 13.9521 11.5305 13.0496 11.5305 11.9363C11.5305 10.823 12.3263 9.92045 13.3298 9.92045C14.3415 9.92045 15.1458 10.8313 15.129 11.9363C15.129 13.0496 14.3415 13.9521 13.3298 13.9521Z" fill="#898B8D"/>
</svg>

