<svg width="20" height="20" viewBox="0 0 20 20" fill="none" xmlns="http://www.w3.org/2000/svg">
  <path d="M2.5 5.83333H5.83333M5.83333 5.83333C5.83333 7.21405 6.95262 8.33333 8.33333 8.33333C9.71405 8.33333 10.8333 7.21405 10.8333 5.83333C10.8333 4.45262 9.71405 3.33333 8.33333 3.33333C6.95262 3.33333 5.83333 4.45262 5.83333 5.83333ZM14.1667 14.1667H17.5M14.1667 14.1667C14.1667 15.5474 13.0474 16.6667 11.6667 16.6667C10.286 16.6667 9.16667 15.5474 9.16667 14.1667C9.16667 12.786 10.286 11.6667 11.6667 11.6667C13.0474 11.6667 14.1667 12.786 14.1667 14.1667ZM17.5 5.83333H10.8333M2.5 14.1667H9.16667" stroke="#fefefc" stroke-width="1.5" stroke-linecap="round" stroke-linejoin="round"/>
</svg>

